<?xml version="1.0" standalone="no"?><!DOCTYPE svg PUBLIC "-//W3C//DTD SVG 1.1//EN" "http://www.w3.org/Graphics/SVG/1.1/DTD/svg11.dtd"><svg t="1578822674450" class="icon" viewBox="0 0 1024 1024" version="1.1" xmlns="http://www.w3.org/2000/svg" p-id="1526" xmlns:xlink="http://www.w3.org/1999/xlink" width="128" height="128"><defs><style type="text/css"></style></defs><path d="M909 909H115V115h794z m-746-48h698V163H163z" p-id="1527" fill="#dbdbdb"></path><path d="M403.11 491.76a84.35 84.35 0 0 1-84.25-84.25v-34.82a84.26 84.26 0 0 1 168.51 0v34.82a84.35 84.35 0 0 1-84.26 84.25z m0-155.32a36.3 36.3 0 0 0-36.25 36.25v34.82a36.26 36.26 0 0 0 72.51 0v-34.82a36.3 36.3 0 0 0-36.26-36.25zM586.66 735.56h-376V617.87A68.45 68.45 0 0 1 279 549.5h239.29a68.45 68.45 0 0 1 68.37 68.37z m-328-48h280v-69.69a20.4 20.4 0 0 0-20.37-20.37H279a20.4 20.4 0 0 0-20.37 20.37zM658.81 463.54a73.38 73.38 0 0 1-73.3-73.31v-28.49a73.31 73.31 0 0 1 146.61 0v28.49a73.39 73.39 0 0 1-73.31 73.31z m0-127.1a25.33 25.33 0 0 0-25.3 25.3v28.49a25.33 25.33 0 0 0 25.3 25.31 25.33 25.33 0 0 0 25.31-25.31v-28.49a25.33 25.33 0 0 0-25.31-25.3zM813.37 646.68H630.94a24 24 0 0 1 0-48h134.43v-28.24A20.4 20.4 0 0 0 745 550.07H607.31a24 24 0 1 1 0-48H745a68.45 68.45 0 0 1 68.37 68.37z" p-id="1528" fill="#dbdbdb"></path></svg>